HIERARCHY
ROOT Hips
{
  OFFSET -331.093 83.8371 -317.828
  CHANNELS 6 Xposition Yposition Zposition Zrotation Xrotation Yrotation
  JOINT LeftUpLeg
  {
    OFFSET 8.64259 1.95398 -2.38835
    CHANNELS 3 Zrotation Xrotation Yrotation
    JOINT LeftLeg
    {
      OFFSET 43.7702 0 0
      CHANNELS 3 Zrotation Xrotation Yrotation
      JOINT LeftFoot
      {
        OFFSET 40.6238 0 0
        CHANNELS 3 Zrotation Xrotation Yrotation
        JOINT LeftToeBase
        {
          OFFSET 12.7242 0 0
          CHANNELS 3 Zrotation Xrotation Yrotation
          End Site
          {
            OFFSET 0 0 0
          }
        }
      }
    }
  }
  JOINT RightUpLeg
  {
    OFFSET -8.2249 1.95398 -2.59336
    CHANNELS 3 Zrotation Xrotation Yrotation
    JOINT RightLeg
    {
      OFFSET 43.5653 0 0
      CHANNELS 3 Zrotation Xrotation Yrotation
      JOINT RightFoot
      {
        OFFSET 40.6238 0 0
        CHANNELS 3 Zrotation Xrotation Yrotation
        JOINT RightToeBase
        {
          OFFSET 12.7242 0 0
          CHANNELS 3 Zrotation Xrotation Yrotation
          End Site
          {
            OFFSET 0 0 0
          }
        }
      }
    }
  }
  JOINT Spine
  {
    OFFSET 0.165834 0.87714 6.61349
    CHANNELS 3 Zrotation Xrotation Yrotation
    JOINT Spine1
    {
      OFFSET 7.38963 1.71661e-005 0
      CHANNELS 3 Zrotation Xrotation Yrotation
      JOINT Spine2
      {
        OFFSET 11.9445 1.14441e-005 0
        CHANNELS 3 Zrotation Xrotation Yrotation
        JOINT Spine3
        {
          OFFSET 14.7254 4.19617e-005 0
          CHANNELS 3 Zrotation Xrotation Yrotation
          JOINT Spine4
          {
            OFFSET 10.9679 0 0
            CHANNELS 3 Zrotation Xrotation Yrotation
            JOINT RightShoulder
            {
              OFFSET 2.46616 -1.6653 3.69651
              CHANNELS 3 Zrotation Xrotation Yrotation
              JOINT RightArm
              {
                OFFSET 13.0012 0 0
                CHANNELS 3 Zrotation Xrotation Yrotation
                JOINT RightForeArm
                {
                  OFFSET 28.7848 1.62311e-005 0
                  CHANNELS 3 Zrotation Xrotation Yrotation
                  JOINT RightHand
                  {
                    OFFSET 26.5688 1.62095e-005 0
                    CHANNELS 3 Zrotation Xrotation Yrotation
                    End Site
                    {
                      OFFSET 0 0 0
                    }
                  }
                }
              }
            }
            JOINT LeftShoulder
            {
              OFFSET 2.38034 -1.29275 -3.7523
              CHANNELS 3 Zrotation Xrotation Yrotation
              JOINT LeftArm
              {
                OFFSET 16.3182 6.07031e-005 0
                CHANNELS 3 Zrotation Xrotation Yrotation
                JOINT LeftForeArm
                {
                  OFFSET 27.0901 0 0
                  CHANNELS 3 Zrotation Xrotation Yrotation
                  JOINT LeftHand
                  {
                    OFFSET 24.5451 1.51738e-005 0
                    CHANNELS 3 Zrotation Xrotation Yrotation
                    End Site
                    {
                      OFFSET 0 0 0
                    }
                  }
                }
              }
            }
            JOINT Neck
            {
              OFFSET 5.0226 -0.0266342 0
              CHANNELS 3 Zrotation Xrotation Yrotation
              JOINT Head
              {
                OFFSET 6.69364 2.86102e-005 0
                CHANNELS 3 Zrotation Xrotation Yrotation
                End Site
                {
                  OFFSET 0 0 0
                }
              }
            }
          }
        }
      }
    }
  }
}
MOTION
Frames:	12
Frame Time:	0.0416667
-92.5431 96.0217 -119.385 90.0604 -36.7575 85.9623 -177.23 -0.786048 82.0128 -24.9581 17.0155 -1.29886 69.4032 8.24796 6.92645 42.2278 10.522 0.77285 175.369 25.452 88.3895 -5.22411 -2.01987 -1.62937 61.2034 -1.22028 -0.567776 48.0445 -3.5141 -10.8011 -0.742955 7.36323 -89.6633 12.1524 -1.31744 0.817961 0.481805 -1.28017 0.87515 -22.0581 -1.50236 0.384132 -2.04541 -1.50236 0.384137 91.4154 -43.3884 -99.7302 37.9635 -12.2559 20.9355 -9.36983 -14.8785 -37.5523 -2.01627 -0.20903 1.4031 -93.0286 -43.926 72.9992 -17.0977 7.69815 -3.88337 11.2454 3.84858 -59.2213 11.964 0.804298 2.73338 -14.3299 -4.41532 -1.05953 11.6838 -4.26255 1.08416 
-85.1502 94.085 -112.893 90.5994 -35.5993 85.8871 -177.028 -5.92351 83.1213 -28.0324 19.8842 -0.532038 68.5728 7.08724 5.09119 51.0917 19.6864 4.23324 175.436 27.1056 88.5927 -6.1715 -0.827023 -1.41314 63.8194 -2.23336 -1.21124 51.5413 -3.19721 -8.54431 -0.908342 7.3759 -89.6307 12.1275 -1.63093 0.917752 0.457194 -1.58895 0.988646 -22.0854 -1.83132 0.385037 -2.07275 -1.83131 0.385032 91.3489 -43.5556 -99.7997 38.6891 -11.445 23.4518 -9.30815 -15.9607 -35.5107 -2.74147 -0.248895 1.01731 -92.8863 -43.822 73.1928 -15.851 5.87502 -5.22738 10.641 1.55875 -64.2731 11.746 0.728225 2.23558 -13.8203 -4.36454 -0.803375 11.3723 -4.2398 0.85706 
-77.4556 92.6557 -105.375 92.6329 -34.3145 89.9237 -174.698 -9.80525 88.8994 -34.7504 25.7562 0.960323 64.5914 4.90769 4.44589 53.595 24.4984 8.45087 175.794 30.3722 90.6833 -23.2838 -2.92129 -1.15442 55.6387 2.74493 1.94705 38.6563 -1.39927 -5.92073 -1.01515 7.46453 -90.0427 11.9478 -2.03852 0.135118 0.278423 -2.0306 0.224744 -22.2691 -1.98485 -0.484035 -2.25645 -1.98486 -0.484042 91.3804 -43.4673 -99.769 38.1162 -10.7702 24.5982 -9.60571 -16.3292 -34.8169 -2.62949 -0.247759 1.11018 -93.8345 -45.7421 72.2909 -15.5648 7.23664 -3.44917 12.2388 1.88191 -65.6654 13.4603 0.838564 2.30416 -14.0071 -4.4843 0.540072 10.7369 -4.45542 0.292839 
-70.4827 91.9308 -98.6193 95.2491 -36.7632 95.9641 -171.271 -4.52882 96.289 -49.9482 26.2681 1.40945 52.8709 -5.37186 -0.641784 40.6604 17.1185 18.4075 177.3 30.2802 97.1415 -38.5309 -0.743594 -1.28376 64.0843 -0.585323 -0.500118 20.9341 0.190651 -0.0882848 -0.683969 7.67536 -90.5965 11.5132 -1.6393 -1.01856 -0.15709 -1.68254 -0.945426 -22.6943 -1.25743 -1.46415 -2.68162 -1.25744 -1.46416 90.9158 -42.9943 -100.656 36.5873 -11.171 21.9261 -9.0069 -15.8701 -34.5093 -3.39002 -0.281563 1.04618 -94.1265 -47.0383 72.2342 -19.1255 7.52573 -1.29802 9.12157 1.95937 -60.303 11.4049 0.789797 2.9042 -14.7688 -4.63313 1.43044 10.5582 -4.6351 0.134031 
-64.9152 93.1958 -93.2355 95.5329 -36.3207 95.4796 -173.092 6.07663 95.6954 -63.8774 16.3439 2.52788 51.2273 -6.11139 0.556555 33.3358 9.56113 19.0749 176.728 25.9521 97.5385 -41.3067 -1.13007 -1.58479 69.5297 -2.80655 -1.75736 23.13 -0.157508 -3.7334 -0.610569 7.77735 -90.4317 11.3148 -1.41608 -0.718594 -0.355551 -1.44634 -0.655571 -22.8935 -1.13466 -1.11098 -2.88082 -1.13466 -1.11098 91.1615 -42.9219 -100.266 36.0526 -11.0516 16.5598 -9.43832 -13.5639 -37.9171 -8.01866 -0.498111 1.23127 -94.8219 -47.3648 71.2822 -21.3905 10.267 -0.129684 10.5121 7.40204 -51.7133 13.0955 0.9503 3.25344 -15.4991 -5.46571 0.283916 11.5567 -5.5619 -0.808691 
-59.5865 95.1891 -88.5362 95.3521 -37.8245 94.3738 -173.632 16.0273 93.2194 -63.0401 9.23456 1.99123 55.3096 -3.37887 1.58888 37.0404 11.8861 15.2822 177.334 19.7682 97.4035 -38.2887 -1.5716 -2.74764 71.2265 -3.92367 -2.30773 25.462 -0.318645 -4.25603 -0.288267 7.8002 -90.2141 11.2726 -0.673325 -0.359299 -0.398228 -0.688454 -0.32933 -22.9339 -0.534207 -0.545046 -2.92125 -0.534188 -0.545053 91.3726 -41.9002 -100.169 35.8719 -11.2128 12.2138 -9.33529 -9.03928 -45.8923 -12.5936 -0.761322 1.61615 -95.0205 -47.6045 71.0564 -24.5233 11.1792 2.62542 9.54993 12.1117 -43.5729 11.7488 0.931619 3.88307 -16.4542 -6.41533 -0.863914 12.107 -6.60658 -1.51514 
-54.5248 96.3131 -84.1896 94.8095 -39.5369 93.3235 -172.973 22.2228 92.407 -51.663 1.41795 0.277799 61.6024 0.538885 1.22088 39.0287 14.568 16.7521 178.208 14.5803 97.3805 -35.917 -2.28464 -4.02315 72.7489 -5.03461 -2.7918 28.2645 -0.577736 -5.16243 0.0398233 7.76431 -89.9897 11.3453 0.0840643 0.0120183 -0.32568 0.0845369 0.00829306 -22.8609 0.0765511 0.036724 -2.84821 0.0765685 0.0367242 91.5099 -40.9537 -100.176 34.8638 -11.859 8.00361 -9.22544 -4.55969 -54.2749 -13.6486 -0.639097 0.0775148 -94.5069 -46.7996 71.5845 -28.9889 10.4779 8.83965 9.75646 15.3484 -40.6379 11.0907 0.978543 4.66883 -17.3109 -7.26176 -2.70996 13.0971 -7.47058 -1.34054 
-49.2575 96.5689 -80.4903 94.6569 -40.537 93.0148 -173.423 24.7318 92.3638 -33.8827 0.469692 -1.61208 60.8395 0.819784 1.88669 43.0429 19.2675 17.6805 177.839 9.80092 96.9681 -34.9541 -2.95655 -4.71687 75.2416 -6.22575 -3.27673 30.1967 -0.640474 -4.7137 0.284125 7.80318 -89.9179 11.2673 0.603753 0.103601 -0.403531 0.607733 0.0769222 -22.9396 0.544714 0.280271 -2.92699 0.54469 0.280271 91.9622 -38.8194 -99.9391 33.9769 -12.0064 3.7216 -10.4861 -2.93475 -62.3167 -14.8104 -0.61948 -0.4966 -95.0509 -47.3042 70.9173 -31.835 11.0137 16.1773 9.11752 15.3767 -40.7573 11.4223 0.925753 4.01506 -16.2297 -8.00029 -2.40515 12.2603 -8.29014 -2.34584 
-43.8082 96.3172 -77.0235 94.3001 -40.2458 93.2724 -176.203 25.075 93.0767 -14.6983 0.309756 -1.17822 60.2334 0.262001 -0.303168 37.3397 14.4786 20.4742 177.156 4.67211 97.0611 -33.0835 -2.48423 -4.68347 77.2703 -7.61331 -3.73729 32.8147 -0.695386 -4.01811 0.404826 7.80995 -89.9387 11.2542 0.834161 0.0394458 -0.416489 0.835092 0.00268446 -22.9537 0.783739 0.28834 -2.94101 0.78374 0.288336 91.9577 -38.5855 -100.008 30.1306 -12.0751 -1.12747 -11.4714 -2.73648 -66.9995 -15.5729 -0.696698 -0.107968 -94.0663 -47.1314 72.3534 -35.1394 10.5088 21.919 8.78801 15.6549 -40.8837 11.3381 0.947403 4.24429 -16.3384 -8.71745 -3.19667 12.9177 -8.97715 -2.00754 
-38.137 95.6301 -73.5228 94.484 -40.1058 94.291 -178.375 26.3674 93.9699 -6.42377 -1.44632 0.129086 61.3486 1.12032 1.82124 39.1185 16.1498 19.8754 176.303 -0.437713 96.7284 -31.8911 -1.90975 -4.4982 78.4392 -8.58425 -4.02996 37.4183 -0.532271 -2.02017 0.664567 7.86651 -90.0411 11.1425 1.30369 -0.208812 -0.527775 1.29327 -0.266007 -23.068 1.30617 0.192723 -3.0554 1.30618 0.192723 92.0184 -38.9418 -99.8097 26.0232 -11.0808 -4.71608 -12.9083 -3.44413 -68.5656 -14.6948 -0.487961 -1.67011 -93.4131 -46.7759 73.2411 -37.181 7.61401 25.8485 8.80164 15.9444 -40.2167 10.7337 0.885102 4.10919 -16.6707 -9.65542 -3.54778 13.8135 -10.0301 -2.68384 
-32.0438 94.1385 -70.0885 94.3435 -39.9334 94.0671 -177.498 27.0792 93.3044 -7.83134 -5.66346 -0.699432 61.1369 1.47743 0.783563 38.566 15.2588 19.277 176.153 -2.62668 95.8968 -36.1205 -1.53715 -5.1717 79.2295 -8.94691 -4.18101 44.2526 -1.00297 -2.81808 0.861176 7.9077 -90.0022 11.0608 1.71329 -0.169448 -0.609048 1.70415 -0.244715 -23.153 1.68497 0.353441 -3.14039 1.68498 0.353449 91.2924 -40.3315 -100.71 22.2477 -9.58091 -6.79404 -12.584 -3.73217 -67.2964 -14.5652 -0.528745 -1.25037 -92.285 -46.5818 74.912 -37.8736 5.64802 27.9669 8.72333 16.3568 -39.4031 10.1386 0.879584 4.46278 -16.5626 -10.4156 -4.41332 13.9561 -10.8402 -3.07679 
-25.4025 92.5448 -66.7636 93.8763 -38.8925 92.7978 -176.024 28.1076 91.5386 -14.7213 -4.52913 -2.09894 57.4811 -1.87266 -1.88379 37.695 12.2556 14.5363 174.761 -1.81601 92.1704 -46.7356 -2.58708 -4.9448 75.2209 -6.6372 -3.52914 50.8757 -1.86216 -4.60469 0.93734 7.96043 -89.8204 10.9544 1.94933 0.173715 -0.715036 1.95508 0.0877128 -23.2607 1.80696 0.751726 -3.24808 1.80697 0.751726 90.5413 -41.8769 -101.576 20.744 -8.28156 -6.26688 -12.371 -4.39196 -65.4229 -15.7799 -0.715606 -0.0982874 -91.7358 -46.0409 75.6125 -37.4684 4.3658 28.9722 8.86317 16.1199 -39.4131 10.0337 0.965806 5.32902 -16.9748 -11.1237 -6.65658 15.3494 -11.5809 -2.92996 
